<svg id="Warstwa_1" data-name="Warstwa 1" xmlns="http://www.w3.org/2000/svg" viewBox="0 0 50 50"><defs><style>.cls-1{fill:#ebebeb;}.cls-2{fill:#fff;}</style></defs><title>Obszar roboczy 1</title><rect class="cls-1" width="50" height="50"/><g id="Symbols"><g id="ACL-Footer"><g id="avatar-_1_-copy" data-name="avatar-(1)-copy"><path id="Fill-1" class="cls-2" d="M24.91,26h.16a4.49,4.49,0,0,0,3.51-1.61c1.92-2.3,1.6-6.23,1.57-6.6C30,15,28.77,13.61,27.73,13a5.27,5.27,0,0,0-2.68-.74H25a5.25,5.25,0,0,0-2.68.72c-1.05.63-2.32,2-2.45,4.82,0,.37-.35,4.3,1.57,6.6A4.45,4.45,0,0,0,24.91,26Zm-3.74-8.08s0,0,0,0c.16-3.79,2.7-4.2,3.78-4.2H25c1.35,0,3.63.61,3.79,4.2v0s.36,3.63-1.23,5.52A3.16,3.16,0,0,1,25,24.56H25a3.16,3.16,0,0,1-2.56-1.13C20.83,21.55,21.17,17.94,21.17,17.91Z"/><path id="Fill-3" class="cls-2" d="M35.23,32.51h0v-.13c0-1-.1-3.5-2.26-4.28l0,0a14.08,14.08,0,0,1-4.14-2,.64.64,0,0,0-.93.17.73.73,0,0,0,.16,1,15.12,15.12,0,0,0,4.55,2.21c1.16.44,1.29,1.75,1.33,3v.13a9.52,9.52,0,0,1-.1,1.63A17.48,17.48,0,0,1,25,36.34a17.75,17.75,0,0,1-8.79-2.17,9.58,9.58,0,0,1-.1-1.63V32.4c0-1.2.17-2.52,1.33-3A15.22,15.22,0,0,0,22,27.24a.75.75,0,0,0,.16-1,.64.64,0,0,0-.93-.17,13.82,13.82,0,0,1-4.14,2h0c-2.16.79-2.23,3.24-2.26,4.28v.15A8.5,8.5,0,0,0,15,34.9a.68.68,0,0,0,.26.34A18.14,18.14,0,0,0,25,37.76a18.13,18.13,0,0,0,9.72-2.52A.68.68,0,0,0,35,34.9,8.75,8.75,0,0,0,35.23,32.51Z"/></g></g></g></svg>